<svg xmlns="http://www.w3.org/2000/svg" viewBox="0 0 440.43 90.66">
  <title>Bluprint logo</title>
  <g>
    <path d="M90.66,20.15V40.29H70.52V20.15ZM110.81,5V85.63a5,5,0,0,1-5,5H5a5,5,0,0,1-5-5V5A5,5,0,0,1,5,0H105.77A5,5,0,0,1,110.81,5ZM100.74,15.11a5,5,0,0,0-5-5H15.11a5,5,0,0,0-5,5V35.26a5,5,0,0,0,10.08,0V20.15H60.44V45.33a5,5,0,0,0,5,5H90.66V70.52H45.33V45.33a5,5,0,1,0-10.07,0V70.52H20.15V55.4a5,5,0,0,0-10.08,0V75.55a5,5,0,0,0,5,5H95.7a5,5,0,0,0,5-5Z" style="fill: #070060"/>
    <g>
      <path d="M137.6,71c0,1.58-1.08,2.66-3.17,2.66s-3.24-.93-3.24-2.88V19.59c0-1.95,1.22-2.88,3.24-2.88,1.87,0,3.17.93,3.17,2.88V35.28a46.2,46.2,0,0,1-.36,5.26c2.66-5.11,6.91-8.21,13.54-8.21,10.8,0,17,7.92,17,20.74,0,12.67-6.55,21.24-17.21,21.24-6.63,0-10.95-3.24-13.25-8.28a31.43,31.43,0,0,1,.29,3.46Zm-.15-17.79c0,8.93,4.68,15.41,12.25,15.41,7.27,0,11.44-6.19,11.44-15.48S157.11,38,149.91,38C142,38,137.45,44.36,137.45,53.21Z" style="fill: #070060"/>
      <path d="M182.52,19.59c0-1.95,1.3-2.88,3.32-2.88s3.24.93,3.24,2.88V70.78c0,2-1.3,2.88-3.24,2.88s-3.32-.93-3.32-2.88Z" style="fill: #070060"/>
      <path d="M205.64,35.79c0-1.95,1.36-2.88,3.31-2.88s3.31.93,3.31,2.88v23c0,6.19,2.52,9.65,7.85,9.65,3.82,0,6.91-1.8,9.36-5.18a12.13,12.13,0,0,0,2.45-7.49v-20c0-1.95,1.37-2.88,3.31-2.88s3.24.93,3.24,2.88v35c0,2-1.29,2.88-3.17,2.88S232,72.8,232,71V69a23.62,23.62,0,0,1,.43-3.38c-2.23,5-6.41,8.71-13.61,8.71-8.49,0-13.17-5.33-13.17-14.11Zm14.47-11.88a4.32,4.32,0,1,1-4.32-4.32A4.33,4.33,0,0,1,220.11,23.91Zm12.82,0a4.32,4.32,0,1,1-4.32-4.32A4.34,4.34,0,0,1,232.93,23.91Z" style="fill: #070060"/>
      <path d="M261.72,86c0,1.8-1.22,2.81-3.16,2.81s-3.24-1-3.24-2.81V35.72c0-1.88,1.22-2.81,3.24-2.81,1.8,0,3.16.86,3.16,2.66v1.3a27.07,27.07,0,0,1-.28,4c2.52-5.11,6.48-8.5,13.46-8.5,10.8,0,16.92,7.85,16.92,20.67s-6.48,21.31-17.21,21.31c-6.69,0-10.8-3.31-13.25-8.35a20.79,20.79,0,0,1,.36,4.18Zm-.14-32.77c0,8.93,4.68,15.41,12.24,15.41,7.27,0,11.38-6.19,11.38-15.48S281.24,38,274,38C266.05,38,261.58,44.36,261.58,53.21Z" style="fill: #070060"/>
      <path d="M307.73,35.72c0-1.88,1.37-2.81,3.39-2.81,1.8,0,3.24.93,3.24,2.81V37.3a29.63,29.63,0,0,1-.44,3.38,12.1,12.1,0,0,1,11-8.13,12.55,12.55,0,0,1,1.58-.07,12.34,12.34,0,0,1,2.88.36,2.37,2.37,0,0,1,2.31,2.59,8.16,8.16,0,0,1-.14,1.22,3.09,3.09,0,0,1-2.81,2.81,2,2,0,0,1-.65-.07,14.38,14.38,0,0,0-3.46-.43,9.32,9.32,0,0,0-7.27,4,12.91,12.91,0,0,0-3,8V70.78c0,2-1.44,2.88-3.24,2.88-2,0-3.39-.93-3.39-2.88Z" style="fill: #070060"/>
      <path d="M352.44,21.46a4.86,4.86,0,1,1-4.82-4.82A4.8,4.8,0,0,1,352.44,21.46Zm-8.13,14.26c0-1.88,1.22-2.81,3.24-2.81s3.31.93,3.31,2.81V70.78c0,2-1.37,2.88-3.31,2.88s-3.24-.93-3.24-2.88Z" style="fill: #070060"/>
      <path d="M400.76,70.78c0,2-1.44,2.88-3.32,2.88s-3.31-.93-3.31-2.88v-23c0-6.12-2.45-9.58-7.85-9.58a11.4,11.4,0,0,0-9.57,5.12,11.37,11.37,0,0,0-2.52,7.34V70.78c0,2-1.37,2.88-3.24,2.88s-3.32-.93-3.32-2.88V35.72c0-1.88,1.37-2.81,3.39-2.81s3.17.93,3.17,2.81v1.94c0,.94-.22,1.66-.29,3,2.52-5.11,6.84-8.35,13.68-8.35,8.57,0,13.18,5.19,13.18,14Z" style="fill: #070060"/>
      <path d="M421.56,24.63c0-1.87,1.23-2.88,3.24-2.88s3.24,1,3.24,2.88v8.71h9.22c1.8,0,2.66,1.15,2.66,2.88A2.53,2.53,0,0,1,437.26,39H428V63.15c0,3.53,1.52,5,4.18,5A7.81,7.81,0,0,0,436.47,67a2.86,2.86,0,0,1,1.29-.36,2.67,2.67,0,0,1,2.38,1.87,4,4,0,0,1,.29,1.58,2.83,2.83,0,0,1-1.51,2.6,15,15,0,0,1-7.13,1.58c-5.91,0-10.23-2.95-10.23-10.51V39H416c-1.73,0-2.52-1.15-2.52-2.81s.79-2.88,2.59-2.88h5.54Z" style="fill: #070060"/>
    </g>
  </g>
</svg>
