<?xml version="1.0" encoding="UTF-8"?>
<svg id="Layer_1" xmlns="http://www.w3.org/2000/svg" version="1.1" viewBox="0 0 403.3 90.7">
  <!-- Generator: Adobe Illustrator 29.1.0, SVG Export Plug-In . SVG Version: 2.1.0 Build 142)  -->
  <defs>
    <style>
      .st0 {
        fill: #3076a9;
      }

      .st1 {
        fill: #333;
      }
    </style>
  </defs>
  <path class="st0" d="M60.4,29.4v12.7h-12.7v-12.7s12.7,0,12.7,0ZM73.1,19.8v50.9c0,1.8-1.4,3.2-3.2,3.2H6.3c-1.8,0-3.2-1.4-3.2-3.2V19.8c0-1.8,1.4-3.2,3.2-3.2h63.6c1.8,0,3.2,1.4,3.2,3.2h0ZM66.7,26.2c0-1.8-1.4-3.2-3.2-3.2H12.7c-1.8,0-3.2,1.4-3.2,3.2v12.7c0,1.8,1.5,3.2,3.2,3.2s3.2-1.5,3.2-3.2v-9.5h25.4v15.9c0,1.8,1.4,3.2,3.2,3.2h15.9v12.7h-28.6v-15.9c0-1.8-1.5-3.2-3.2-3.2s-3.2,1.5-3.2,3.2v15.9h-9.5v-9.5c0-1.8-1.5-3.2-3.2-3.2s-3.2,1.5-3.2,3.2v12.7c0,1.8,1.4,3.2,3.2,3.2h50.9c1.8,0,3.2-1.4,3.2-3.2V26.2h-.1Z"/>
  <g>
    <path class="st1" d="M100.5,71c0,1.6-1.1,2.7-3.2,2.7s-3.2-.9-3.2-2.9V19.6c0-2,1.2-2.9,3.2-2.9s3.2.9,3.2,2.9v15.7c0,1.8,0,3.5-.4,5.3,2.7-5.1,6.9-8.2,13.5-8.2,10.8,0,17,7.9,17,20.7s-6.6,21.2-17.2,21.2-10.9-3.2-13.2-8.3c.2,1.1.3,2.3.3,3.5v1.5h0ZM100.4,53.2c0,8.9,4.7,15.4,12.2,15.4s11.4-6.2,11.4-15.5-4-15.1-11.2-15.1-12.5,6.4-12.5,15.2h0Z"/>
    <path class="st1" d="M145.4,19.6c0-2,1.3-2.9,3.3-2.9s3.2.9,3.2,2.9v51.2c0,2-1.3,2.9-3.2,2.9s-3.3-.9-3.3-2.9V19.6Z"/>
    <path class="st1" d="M168.5,35.8c0-2,1.4-2.9,3.3-2.9s3.3.9,3.3,2.9v23c0,6.2,2.5,9.7,7.9,9.7s6.9-1.8,9.4-5.2c1.6-2.2,2.5-4.8,2.4-7.5v-20c0-2,1.4-2.9,3.3-2.9s3.2.9,3.2,2.9v35c0,2-1.3,2.9-3.2,2.9s-3.3-.8-3.3-2.7v-2c0-1.1.2-2.3.4-3.4-2.2,5-6.4,8.7-13.6,8.7s-13.2-5.3-13.2-14.1v-24.4h.1ZM183,23.9c0,2.4-1.9,4.3-4.3,4.3s-4.3-1.9-4.3-4.3,1.9-4.3,4.3-4.3,4.3,1.9,4.3,4.3ZM195.8,23.9c0,2.4-1.9,4.3-4.3,4.3s-4.3-1.9-4.3-4.3,1.9-4.3,4.3-4.3,4.3,1.9,4.3,4.3Z"/>
    <path class="st1" d="M224.6,86c0,1.8-1.2,2.8-3.2,2.8s-3.2-1-3.2-2.8v-50.3c0-1.9,1.2-2.8,3.2-2.8s3.2.9,3.2,2.7v1.3c0,1.3,0,2.7-.3,4,2.5-5.1,6.5-8.5,13.5-8.5,10.8,0,16.9,7.8,16.9,20.7s-6.5,21.3-17.2,21.3-10.8-3.3-13.2-8.3c.3,1.4.4,2.8.4,4.2v15.8h0ZM224.5,53.2c0,8.9,4.7,15.4,12.2,15.4s11.4-6.2,11.4-15.5-4-15.2-11.2-15.2-12.4,6.4-12.4,15.2h0Z"/>
    <path class="st1" d="M270.6,35.7c0-1.9,1.4-2.8,3.4-2.8s3.2.9,3.2,2.8v1.6c0,1.1-.2,2.3-.4,3.4,1.6-4.7,6-8,11-8.1h1.6c1,0,1.9,0,2.9.4,1.3,0,2.3,1.1,2.3,2.4v.2c0,.4,0,.8-.1,1.2-.1,1.5-1.3,2.7-2.8,2.8h-.6c-1.1-.3-2.3-.4-3.5-.4-2.9,0-5.6,1.6-7.3,4-1.9,2.2-2.9,5.1-3,8v19.8c0,2-1.4,2.9-3.2,2.9s-3.4-.9-3.4-2.9v-35.3h-.1Z"/>
    <path class="st1" d="M315.3,21.5c0,2.7-2.1,4.9-4.8,4.9s-4.9-2.1-4.9-4.8,2.1-4.9,4.8-4.9h0c2.7,0,4.8,2.1,4.8,4.8h.1ZM307.2,35.7c0-1.9,1.2-2.8,3.2-2.8s3.3.9,3.3,2.8v35.1c0,2-1.4,2.9-3.3,2.9s-3.2-.9-3.2-2.9v-35.1Z"/>
    <path class="st1" d="M363.7,70.8c0,2-1.4,2.9-3.3,2.9s-3.3-.9-3.3-2.9v-23c0-6.1-2.5-9.6-7.9-9.6s-7.4,1.9-9.6,5.1c-1.7,2.1-2.6,4.7-2.5,7.3v20.1c0,2-1.4,2.9-3.2,2.9s-3.3-.9-3.3-2.9v-35.1c0-1.9,1.4-2.8,3.4-2.8s3.2.9,3.2,2.8v1.9c0,.9-.2,1.7-.3,3,2.5-5.1,6.8-8.4,13.7-8.4s13.2,5.2,13.2,14v24.7h-.1Z"/>
    <path class="st1" d="M384.5,24.6c0-1.9,1.2-2.9,3.2-2.9s3.2,1,3.2,2.9v8.7h9.2c1.8,0,2.7,1.2,2.7,2.9.1,1.4-.9,2.6-2.3,2.8h-9.7v24.2c0,3.5,1.5,5,4.2,5s3-.4,4.3-1.2c.4-.2.8-.3,1.3-.4,1.1,0,2.1.8,2.4,1.9.2.5.3,1,.3,1.6,0,1.1-.5,2.1-1.5,2.6-2.2,1.1-4.7,1.6-7.1,1.6-5.9,0-10.2-2.9-10.2-10.5v-24.8h-5.6c-1.7,0-2.5-1.2-2.5-2.8s.8-2.9,2.6-2.9h5.5v-8.7h0Z"/>
  </g>
</svg>