<?xml version="1.0" encoding="UTF-8"?>
<svg id="Layer_1" xmlns="http://www.w3.org/2000/svg" version="1.1" viewBox="0 0 110.7 90.7">
  <!-- Generator: Adobe Illustrator 29.1.0, SVG Export Plug-In . SVG Version: 2.1.0 Build 142)  -->
  <defs>
    <style>
      .st0 {
        fill: #4a9cbc;
      }
    </style>
  </defs>
  <path class="st0" d="M90.7,20.1v20.1h-20.1v-20.1h20.1ZM110.8,5v80.6c0,2.8-2.2,5-5,5H5c-2.8,0-5-2.2-5-5V5C0,2.2,2.2,0,5,0h100.8c2.8,0,5,2.2,5,5h0ZM100.7,15.1c0-2.8-2.2-5-5-5H15.1c-2.8,0-5,2.2-5,5v20.1c0,2.8,2.3,5,5,5s5-2.3,5-5v-15.1h40.2v25.2c0,2.8,2.2,5,5,5h25.2v20.2h-45.3v-25.2c0-2.8-2.3-5-5-5s-5,2.3-5,5v25.2h-15.1v-15.1c0-2.8-2.3-5-5-5s-5,2.3-5,5v20.2c0,2.8,2.2,5,5,5h80.6c2.8,0,5-2.2,5-5V15.1Z"/>
</svg>